<?xml version="1.0" standalone="no"?>
<!DOCTYPE svg PUBLIC "-//W3C//DTD SVG 20010904//EN"
 "http://www.w3.org/TR/2001/REC-SVG-20010904/DTD/svg10.dtd">
<svg version="1.0" xmlns="http://www.w3.org/2000/svg"
 width="512.000000pt" height="512.000000pt" viewBox="0 0 512.000000 512.000000"
 preserveAspectRatio="xMidYMid meet">
<metadata>
Created by potrace 1.14, written by Peter Selinger 2001-2017
</metadata>
<g transform="translate(0.000000,512.000000) scale(0.100000,-0.100000)"
fill="#000000" stroke="none">
<path d="M755 4518 c-3 -7 -4 -893 -3 -1968 l3 -1955 422 -3 423 -2 2 1582 3
1582 262 -235 262 -234 0 -1347 1 -1348 425 0 425 0 0 1705 0 1705 -765 0
-765 0 0 -1385 0 -1385 -270 0 -270 0 0 1570 0 1570 1299 0 1299 0 6 -162 c3
-90 13 -935 22 -1878 8 -943 17 -1721 20 -1728 3 -10 89 -12 406 -10 l403 3 3
1363 c1 1019 -1 1369 -10 1385 -24 47 -711 1153 -726 1170 -14 16 -96 17
-1444 17 -1134 0 -1430 -3 -1433 -12z m3194 -795 l261 -423 0 -1035 0 -1035
-255 0 c-140 0 -255 1 -255 3 -2 14 -30 2522 -30 2697 0 135 4 230 9 225 5 -6
126 -200 270 -432z m-1119 -103 l0 -230 -298 0 -298 0 -225 201 c-123 110
-237 214 -254 230 l-30 29 553 0 552 0 0 -230z m0 -1385 l0 -1005 -275 0 -275
0 0 1005 0 1005 275 0 275 0 0 -1005z m-1380 -1320 l0 -165 -270 0 -270 0 0
165 0 165 270 0 270 0 0 -165z m1380 0 l0 -165 -275 0 -275 0 0 165 0 165 275
0 275 0 0 -165z m1380 0 l0 -165 -255 0 -255 0 0 165 0 165 255 0 255 0 0
-165z"/>
</g>
</svg>
